<svg xmlns="http://www.w3.org/2000/svg" version="1.1" viewBox="-5.0 -10.0 110.0 135.0">
 <path d="m93.75 50c0 24.125-19.625 43.75-43.75 43.75s-43.75-19.625-43.75-43.75c0-3.4102 0.39453-6.8086 1.168-10.094 0.39844-1.6797 2.0859-2.7305 3.7578-2.3242 1.6797 0.39844 2.7227 2.0781 2.3242 3.7578-0.66016 2.8203-1 5.7305-1 8.6602 0 20.68 16.82 37.5 37.5 37.5s37.5-16.82 37.5-37.5c0-20.676-16.82-37.5-37.5-37.5-12.945 0-24.812 6.5469-31.73 17.508-0.92188 1.457-2.8477 1.8984-4.3125 0.97266-1.4609-0.91797-1.8945-2.8477-0.97656-4.3086 8.0781-12.789 21.918-20.422 37.02-20.422 24.125 0 43.75 19.625 43.75 43.75zm-59.375 21.875c-5.168 0-9.375-4.207-9.375-9.375v-25c0-5.168 4.207-9.375 9.375-9.375h31.25c5.168 0 9.375 4.207 9.375 9.375v25c0 5.168-4.207 9.375-9.375 9.375zm-3.125-33.062 18.75 10.715 18.75-10.715v-1.3125c0-1.7227-1.4023-3.125-3.125-3.125h-31.25c-1.7227 0-3.125 1.4023-3.125 3.125zm3.125 26.812h31.25c1.7227 0 3.125-1.4023 3.125-3.125v-16.492l-17.199 9.8281c-0.48047 0.27734-1.0156 0.41406-1.5508 0.41406s-1.0703-0.13672-1.5508-0.41016l-17.199-9.832v16.492c0 1.7227 1.4023 3.125 3.125 3.125z"/>
<text x="0.0" y="117.5" font-size="5.0" font-weight="bold" font-family="Arbeit Regular, Helvetica, Arial-Unicode, Arial, Sans-serif" fill="#000000">Created by Docktor Icon Shop</text><text x="0.0" y="122.5" font-size="5.0" font-weight="bold" font-family="Arbeit Regular, Helvetica, Arial-Unicode, Arial, Sans-serif" fill="#000000">from Noun Project</text></svg>