<svg xmlns="http://www.w3.org/2000/svg" xmlns:xlink="http://www.w3.org/1999/xlink" xml:space="preserve" version="1.1" style="shape-rendering:geometricPrecision;text-rendering:geometricPrecision;image-rendering:optimizeQuality;" viewBox="0 0 325 338.75" x="0px" y="0px" fill-rule="evenodd" clip-rule="evenodd"><defs><style type="text/css">
   
    .fil0 {fill:black}
   
  </style></defs><g><path class="fil0" d="M59 94l207 0 -19 -49c-4,-12 -10,-23 -22,-23l-125 0c-13,0 -18,11 -23,23l-18 49zm236 1c17,3 30,18 30,36l0 92 -325 0 0 -92c0,-18 13,-33 30,-36l24 -66c6,-15 13,-29 29,-29l158 0c16,0 24,14 30,29l24 66zm-29 43c-15,0 -27,12 -27,27 0,15 12,27 27,27 15,0 27,-12 27,-27 0,-15 -12,-27 -27,-27zm-208 0c15,0 27,12 27,27 0,15 -12,27 -27,27 -14,0 -26,-12 -26,-27 0,-15 12,-27 26,-27z"/><path class="fil0" d="M25 213l62 0 0 29c0,16 -13,29 -29,29l-4 0c-16,0 -29,-13 -29,-29l0 -29z"/><path class="fil0" d="M300 213l-63 0 0 29c0,16 13,29 29,29l5 0c16,0 29,-13 29,-29l0 -29z"/></g><text x="0" y="286" fill="#000000" font-size="5px" font-weight="bold" font-family="'Helvetica Neue', Helvetica, Arial-Unicode, Arial, Sans-serif">Created by yanti anis</text><text x="0" y="291" fill="#000000" font-size="5px" font-weight="bold" font-family="'Helvetica Neue', Helvetica, Arial-Unicode, Arial, Sans-serif">from the Noun Project</text></svg>