<?xml version="1.0" encoding="UTF-8" standalone="no"?>
<svg
   xml:space="preserve"
   version="1.0"
   style="shape-rendering:geometricPrecision;text-rendering:geometricPrecision;image-rendering:optimizeQuality;"
   viewBox="0 0 10000 12500"
   x="0px"
   y="0px"
   fill-rule="evenodd"
   clip-rule="evenodd"
   id="svg2"
   sodipodi:docname="noun-circle-100.svg"
   inkscape:version="1.3.2 (091e20e, 2023-11-25, custom)"
   xmlns:inkscape="http://www.inkscape.org/namespaces/inkscape"
   xmlns:sodipodi="http://sodipodi.sourceforge.net/DTD/sodipodi-0.dtd"
   xmlns="http://www.w3.org/2000/svg"
   xmlns:svg="http://www.w3.org/2000/svg"><sodipodi:namedview
     id="namedview2"
     pagecolor="#ffffff"
     bordercolor="#000000"
     borderopacity="0.25"
     inkscape:showpageshadow="2"
     inkscape:pageopacity="0.0"
     inkscape:pagecheckerboard="0"
     inkscape:deskcolor="#d1d1d1"
     inkscape:zoom="1.04064"
     inkscape:cx="4890.7403"
     inkscape:cy="5545.1453"
     inkscape:window-width="1920"
     inkscape:window-height="1009"
     inkscape:window-x="-8"
     inkscape:window-y="-8"
     inkscape:window-maximized="1"
     inkscape:current-layer="svg2" /><defs
     id="defs1"><style
       type="text/css"
       id="style1">
   
    .fil0 {fill:black;fill-rule:nonzero}
   
  </style></defs><g
     id="g1"
     transform="matrix(0.01109516,0,0,0.01109516,4517.0683,5416.5321)"><path
       class="fil0"
       d="m 5000,987 c 2216,0 4013,1797 4013,4013 0,2216 -1797,4013 -4013,4013 C 2784,9013 987,7216 987,5000 987,2784 2784,987 5000,987 Z m 0,1605 c -1330,0 -2408,1078 -2408,2408 0,1330 1078,2408 2408,2408 1330,0 2408,-1078 2408,-2408 0,-1330 -1078,-2408 -2408,-2408 z"
       id="path1" /></g><text
     x="4517.0679"
     y="5527.6499"
     fill="#000000"
     font-size="0.0554758px"
     font-weight="bold"
     font-family="'Helvetica Neue', Helvetica, Arial-Unicode, Arial, Sans-serif"
     id="text1"
     style="stroke-width:0.0110952">Created by sriulan</text><text
     x="4517.0679"
     y="5527.7056"
     fill="#000000"
     font-size="0.0554758px"
     font-weight="bold"
     font-family="'Helvetica Neue', Helvetica, Arial-Unicode, Arial, Sans-serif"
     id="text2"
     style="stroke-width:0.0110952">from the Noun Project</text></svg>
